<svg width="82" height="23" viewBox="0 0 82 23" fill="none" xmlns="http://www.w3.org/2000/svg">
<path fill-rule="evenodd" clip-rule="evenodd" d="M14.8059 0H7.65026C5.25819 0 4.17169 0.00559475 3.00388 0.372477C1.78288 0.820803 0.820803 1.78288 0.372477 3.00388C0.00559498 4.17169 0 5.25838 0 7.65026V14.8059C0 17.1979 0.00559184 18.2843 0.37248 19.4523C0.820818 20.6733 1.78291 21.6353 3.00387 22.0835C4.17167 22.4505 5.25812 22.4561 7.65026 22.4561H14.8059C17.198 22.4561 18.2843 22.4505 19.4523 22.0835C20.6732 21.6353 21.6353 20.6733 22.0837 19.4523C22.4505 18.2843 22.4561 17.1979 22.4561 14.8059V7.65026C22.4561 5.25837 22.4505 4.17168 22.0837 3.00385C21.6353 1.78287 20.6733 0.820804 19.4523 0.37248C18.2843 0.00559184 17.1979 0 14.8059 0Z" fill="#FE3265"/>
<path fill-rule="evenodd" clip-rule="evenodd" d="M7.80675 5.08772C7.08006 5.08772 6.49096 5.67682 6.49096 6.40351V10.7895C6.49096 12.2429 7.66916 13.4211 9.12254 13.4211H11.7541C12.723 13.4211 13.5085 14.2065 13.5085 15.1754V16.0526C13.5085 16.7793 14.0976 17.3684 14.8243 17.3684C15.551 17.3684 16.1401 16.7793 16.1401 16.0526V13.8596C16.1401 12.4063 14.9619 11.2281 13.5085 11.2281H10.8972C9.91706 11.2281 9.12254 10.4335 9.12254 9.45346V6.40351C9.12254 5.67682 8.53344 5.08772 7.80675 5.08772ZM16.1401 11.5387C15.4972 10.8103 14.5565 10.3509 13.5085 10.3509H10.8972C10.4015 10.3509 9.99973 9.94909 9.99973 9.45346V6.40351C9.99973 5.19236 9.0179 4.21053 7.80675 4.21053C6.5956 4.21053 5.61377 5.19236 5.61377 6.40351V16.0526C5.61377 17.2638 6.5956 18.2456 7.80675 18.2456C9.0179 18.2456 9.99973 17.2638 9.99973 16.0526V15.614C9.99973 15.3718 9.80337 15.1754 9.56114 15.1754C9.31891 15.1754 9.12254 15.3718 9.12254 15.614V16.0526C9.12254 16.7793 8.53344 17.3684 7.80675 17.3684C7.08006 17.3684 6.49096 16.7793 6.49096 16.0526V13.1104C7.1339 13.8388 8.07457 14.2982 9.12254 14.2982H11.7541C12.2386 14.2982 12.6313 14.691 12.6313 15.1754V16.0526C12.6313 17.2638 13.6131 18.2456 14.8243 18.2456C16.0354 18.2456 17.0173 17.2638 17.0173 16.0526V6.40351C17.0173 5.19236 16.0354 4.21053 14.8243 4.21053C13.6131 4.21053 12.6313 5.19236 12.6313 6.40351V9.03509C12.6313 9.27732 12.8277 9.47368 13.0699 9.47368C13.3121 9.47368 13.5085 9.27732 13.5085 9.03509V6.40351C13.5085 5.67682 14.0976 5.08772 14.8243 5.08772C15.551 5.08772 16.1401 5.67682 16.1401 6.40351V11.5387Z" fill="white"/>
<path d="M33.9633 10.8957C33.9633 10.5131 33.9395 10.1783 33.892 9.89132C33.8446 9.59241 33.7555 9.3473 33.625 9.15599C33.5063 8.96468 33.3342 8.82121 33.1087 8.72555C32.8831 8.6299 32.5983 8.58207 32.2541 8.58207C31.9692 8.58207 31.7021 8.61196 31.4529 8.67175C31.2155 8.73153 31.0078 8.84512 30.8297 9.01251C30.6635 9.16795 30.527 9.39512 30.4202 9.69404C30.3253 9.981 30.2778 10.3517 30.2778 10.806V15.8816C30.2778 16.0849 30.171 16.2582 29.9573 16.4017C29.7555 16.5571 29.4944 16.6349 29.1739 16.6349C28.8535 16.6349 28.5864 16.5571 28.3727 16.4017C28.171 16.2463 28.0701 16.0729 28.0701 15.8816V3.56029C28.0701 3.34507 28.1769 3.16572 28.3905 3.02224C28.6161 2.87876 28.8831 2.80702 29.1917 2.80702C29.5003 2.80702 29.7555 2.87876 29.9573 3.02224C30.171 3.16572 30.2778 3.34507 30.2778 3.56029V8.22337C30.3846 8.00816 30.5092 7.80489 30.6517 7.61359C30.806 7.42228 30.984 7.24891 31.1858 7.09347C31.3995 6.93804 31.6368 6.81847 31.898 6.73477C32.171 6.63912 32.4796 6.5913 32.8238 6.5913C33.2867 6.5913 33.7199 6.66303 34.1235 6.80651C34.5271 6.94999 34.8772 7.16521 35.1739 7.45217C35.4825 7.72717 35.7259 8.0799 35.9039 8.51033C36.082 8.94077 36.171 9.44295 36.171 10.0169V15.8816C36.171 16.0968 36.0701 16.2762 35.8683 16.4196C35.6784 16.5631 35.4173 16.6349 35.0849 16.6349C34.7526 16.6349 34.4796 16.5631 34.2659 16.4196C34.0641 16.2762 33.9633 16.0968 33.9633 15.8816V10.8957Z" fill="#FE3265"/>
<path d="M43.2345 10.8777C43.2345 10.5788 43.2108 10.2919 43.1633 10.0169C43.1158 9.72991 43.0268 9.4848 42.8962 9.28154C42.7775 9.06632 42.6114 8.89892 42.3977 8.77936C42.1959 8.64784 41.9289 8.58207 41.5965 8.58207C41.1692 8.58207 40.825 8.65979 40.5639 8.81523C40.3028 8.95871 40.101 9.15001 39.9585 9.38915C39.8161 9.61632 39.7212 9.86741 39.6737 10.1424C39.6262 10.4055 39.6025 10.6506 39.6025 10.8777H43.2345ZM41.6499 16.8142C40.9259 16.8142 40.2968 16.6946 39.7627 16.4555C39.2286 16.2164 38.7835 15.8816 38.4274 15.4512C38.0713 15.0088 37.8042 14.4767 37.6262 13.8549C37.4481 13.2332 37.3591 12.5397 37.3591 11.7745C37.3591 11.0332 37.4481 10.3457 37.6262 9.71197C37.8042 9.07827 38.0713 8.53425 38.4274 8.0799C38.7953 7.61359 39.2464 7.24891 39.7805 6.98586C40.3146 6.72282 40.9378 6.5913 41.6499 6.5913C42.3265 6.5913 42.9022 6.71086 43.3769 6.94999C43.8517 7.18913 44.2375 7.51196 44.5342 7.91848C44.8428 8.32501 45.0683 8.79729 45.2108 9.33534C45.3532 9.87339 45.4244 10.4413 45.4244 11.0392C45.4244 11.5413 45.3591 11.924 45.2286 12.187C45.098 12.45 44.8547 12.5816 44.4986 12.5816H39.6025C39.6025 12.8566 39.6321 13.1256 39.6915 13.3886C39.7508 13.6517 39.8576 13.8908 40.012 14.106C40.1781 14.3213 40.3918 14.4946 40.6529 14.6261C40.9259 14.7577 41.2701 14.8234 41.6855 14.8234C42.2197 14.8234 42.6351 14.7457 42.9318 14.5903C43.2404 14.4229 43.4838 14.2376 43.6618 14.0343C43.7924 13.8789 43.9229 13.7832 44.0535 13.7473C44.1841 13.7115 44.3028 13.7115 44.4096 13.7473C44.5283 13.7713 44.6292 13.8131 44.7123 13.8729C44.8072 13.9327 44.8844 13.9805 44.9437 14.0164C45.1692 14.1957 45.2583 14.4468 45.2108 14.7696C45.1633 15.0805 44.9912 15.3914 44.6945 15.7022C44.4096 16.0012 44.006 16.2582 43.4838 16.4734C42.9734 16.7006 42.3621 16.8142 41.6499 16.8142Z" fill="#FE3265"/>
<path d="M52.6169 14.6261C52.522 14.8294 52.3973 15.0327 52.243 15.2359C52.0887 15.4272 51.9047 15.6006 51.6911 15.7561C51.4893 15.9115 51.2519 16.037 50.9789 16.1327C50.7059 16.2164 50.4032 16.2582 50.0709 16.2582C49.608 16.2582 49.1748 16.1865 48.7712 16.043C48.3676 15.8995 48.0116 15.6903 47.7029 15.4153C47.4062 15.1283 47.1688 14.7696 46.9908 14.3392C46.8127 13.9088 46.7237 13.4066 46.7237 12.8327V7.52391C46.7237 7.30869 46.8187 7.12934 47.0086 6.98586C47.2104 6.84238 47.4774 6.77064 47.8098 6.77064C48.1421 6.77064 48.4092 6.84238 48.611 6.98586C48.8246 7.12934 48.9314 7.30869 48.9314 7.52391V11.9538C48.9314 12.3365 48.9552 12.6712 49.0027 12.9582C49.0501 13.2452 49.1332 13.4843 49.2519 13.6756C49.3825 13.8669 49.5605 14.0104 49.786 14.106C50.0116 14.2017 50.2964 14.2495 50.6406 14.2495C50.9255 14.2495 51.1866 14.2196 51.424 14.1598C51.6733 14.1001 51.881 13.9924 52.0472 13.837C52.2252 13.6696 52.3617 13.4424 52.4567 13.1555C52.5635 12.8685 52.6169 12.4979 52.6169 12.0435V7.52391C52.6169 7.32065 52.7178 7.14728 52.9196 7.0038C53.1332 6.84836 53.4003 6.77064 53.7208 6.77064C54.0412 6.77064 54.3024 6.84836 54.5042 7.0038C54.7178 7.15924 54.8246 7.33261 54.8246 7.52391V16.0251C54.8246 16.5751 54.7119 17.0713 54.4863 17.5137C54.2608 17.968 53.9463 18.3566 53.5427 18.6794C53.1392 19.0023 52.6644 19.2474 52.1184 19.4148C51.5843 19.5822 51.0086 19.6599 50.3914 19.6479C50.0472 19.6479 49.7326 19.63 49.4478 19.5941C49.1748 19.5702 48.9077 19.5164 48.6466 19.4327C48.3973 19.349 48.1481 19.2354 47.8988 19.0919C47.6614 18.9604 47.4121 18.793 47.151 18.5898C46.8662 18.3626 46.694 18.1294 46.6347 17.8903C46.5872 17.6631 46.5991 17.436 46.6703 17.2088C46.7771 16.874 46.9314 16.6707 47.1332 16.599C47.3469 16.5392 47.5546 16.599 47.7564 16.7783C48.0412 17.0294 48.3914 17.2267 48.8068 17.3702C49.2341 17.5256 49.7564 17.5974 50.3736 17.5854C50.7415 17.5735 51.062 17.5197 51.335 17.424C51.6199 17.3283 51.8573 17.2088 52.0472 17.0653C52.2371 16.9218 52.3795 16.7604 52.4745 16.5811C52.5694 16.4017 52.6169 16.2224 52.6169 16.043V14.6261Z" fill="#FE3265"/>
<path d="M62.3536 14.6261C62.2586 14.8294 62.134 15.0327 61.9797 15.2359C61.8254 15.4272 61.6414 15.6006 61.4278 15.7561C61.226 15.9115 60.9886 16.037 60.7156 16.1327C60.4426 16.2164 60.1399 16.2582 59.8076 16.2582C59.3447 16.2582 58.9114 16.1865 58.5079 16.043C58.1043 15.8995 57.7482 15.6903 57.4396 15.4153C57.1429 15.1283 56.9055 14.7696 56.7274 14.3392C56.5494 13.9088 56.4604 13.4066 56.4604 12.8327V7.52391C56.4604 7.30869 56.5553 7.12934 56.7453 6.98586C56.947 6.84238 57.2141 6.77064 57.5464 6.77064C57.8788 6.77064 58.1458 6.84238 58.3476 6.98586C58.5613 7.12934 58.6681 7.30869 58.6681 7.52391V11.9538C58.6681 12.3365 58.6918 12.6712 58.7393 12.9582C58.7868 13.2452 58.8699 13.4843 58.9886 13.6756C59.1191 13.8669 59.2972 14.0104 59.5227 14.106C59.7482 14.2017 60.0331 14.2495 60.3773 14.2495C60.6622 14.2495 60.9233 14.2196 61.1607 14.1598C61.41 14.1001 61.6177 13.9924 61.7838 13.837C61.9619 13.6696 62.0984 13.4424 62.1933 13.1555C62.3002 12.8685 62.3536 12.4979 62.3536 12.0435V7.52391C62.3536 7.32065 62.4545 7.14728 62.6562 7.0038C62.8699 6.84836 63.137 6.77064 63.4574 6.77064C63.7779 6.77064 64.039 6.84836 64.2408 7.0038C64.4545 7.15924 64.5613 7.33261 64.5613 7.52391V16.0251C64.5613 16.5751 64.4485 17.0713 64.223 17.5137C63.9975 17.968 63.683 18.3566 63.2794 18.6794C62.8758 19.0023 62.4011 19.2474 61.8551 19.4148C61.3209 19.5822 60.7453 19.6599 60.1281 19.6479C59.7838 19.6479 59.4693 19.63 59.1844 19.5941C58.9114 19.5702 58.6444 19.5164 58.3832 19.4327C58.134 19.349 57.8847 19.2354 57.6355 19.0919C57.3981 18.9604 57.1488 18.793 56.8877 18.5898C56.6028 18.3626 56.4307 18.1294 56.3714 17.8903C56.3239 17.6631 56.3358 17.436 56.407 17.2088C56.5138 16.874 56.6681 16.6707 56.8699 16.599C57.0835 16.5392 57.2912 16.599 57.493 16.7783C57.7779 17.0294 58.128 17.2267 58.5435 17.3702C58.9708 17.5256 59.493 17.5974 60.1102 17.5854C60.4782 17.5735 60.7987 17.5197 61.0717 17.424C61.3565 17.3283 61.5939 17.2088 61.7838 17.0653C61.9738 16.9218 62.1162 16.7604 62.2111 16.5811C62.3061 16.4017 62.3536 16.2224 62.3536 16.043V14.6261Z" fill="#FE3265"/>
</svg>
