<svg width="15" height="15" viewBox="0 0 15 15" fill="none" xmlns="http://www.w3.org/2000/svg">
<path d="M9.30572 7.46797C9.49561 7.40012 9.62312 7.2188 9.62312 7.01721C9.62312 6.81561 9.49561 6.6343 9.3065 6.56645L8.43695 6.25294C8.01391 6.10118 7.62971 5.85766 7.31191 5.53986C6.99411 5.22206 6.75059 4.83785 6.59882 4.41481L6.28532 3.54527C6.25177 3.45276 6.19062 3.37278 6.11015 3.31616C6.02967 3.25953 5.93374 3.22898 5.83534 3.22865C5.63413 3.22865 5.45282 3.35576 5.38419 3.54527L5.07108 4.41481C4.91934 4.83793 4.67579 5.2222 4.35791 5.54001C4.04003 5.85783 3.65571 6.1013 3.23255 6.25294L2.36379 6.56645C2.17389 6.63469 2.04639 6.81561 2.04639 7.01721C2.04639 7.2188 2.17389 7.39973 2.36301 7.46797L3.23255 7.78147C3.65562 7.93319 4.03985 8.17669 4.35766 8.4945C4.67547 8.81231 4.91897 9.19654 5.07069 9.6196L5.38419 10.4895C5.45243 10.6787 5.63374 10.8058 5.83495 10.8058C6.03615 10.8058 6.21747 10.6783 6.28532 10.4891L6.59882 9.6196C6.75059 9.19656 6.99411 8.81236 7.31191 8.49456C7.62971 8.17676 8.01391 7.93324 8.43695 7.78147L9.30572 7.46797ZM7.96748 3.68837L8.40771 3.84708C8.59526 3.91437 8.7656 4.02234 8.9065 4.16324C9.0474 4.30414 9.15537 4.47448 9.22266 4.66203L9.38097 5.10187C9.44297 5.27422 9.60752 5.39003 9.7904 5.39003C9.97328 5.39003 10.1382 5.27422 10.1998 5.10226L10.3585 4.66203C10.4258 4.47444 10.5337 4.30406 10.6746 4.16315C10.8155 4.02224 10.9859 3.9143 11.1735 3.84708L11.6141 3.68837C11.7853 3.62638 11.9011 3.46221 11.9015 3.28012C11.9019 3.09802 11.7872 2.93308 11.6141 2.86991L11.1735 2.71121C10.986 2.64387 10.8156 2.53588 10.6748 2.39499C10.5339 2.25409 10.4259 2.08378 10.3585 1.89626L10.1998 1.45602C10.1692 1.37207 10.1136 1.29955 10.0404 1.24831C9.96715 1.19707 9.87995 1.16959 9.7906 1.16959C9.70124 1.16959 9.61404 1.19707 9.54084 1.24831C9.46763 1.29955 9.41196 1.37207 9.38136 1.45602L9.22266 1.89626C9.15537 2.08381 9.0474 2.25415 8.9065 2.39505C8.7656 2.53594 8.59526 2.64391 8.40771 2.71121L7.96631 2.8703C7.79474 2.93269 7.67932 3.09763 7.67971 3.28012C7.6801 3.4626 7.79591 3.62677 7.96748 3.68837ZM11.6137 10.346L11.1735 10.1873C10.986 10.12 10.8156 10.012 10.6748 9.87112C10.5339 9.73022 10.4259 9.55991 10.3585 9.37239L10.1998 8.93215C10.1691 8.84824 10.1134 8.77578 10.0402 8.72458C9.96695 8.67339 9.87975 8.64593 9.7904 8.64593C9.70105 8.64593 9.61385 8.67339 9.54062 8.72458C9.46739 8.77578 9.41166 8.84824 9.38097 8.93215L9.22227 9.37239C9.15505 9.55998 9.0471 9.73035 8.9062 9.87126C8.76529 10.0122 8.59491 10.1201 8.40732 10.1873L7.96748 10.3457C7.79552 10.4073 7.67971 10.5718 7.67932 10.7543C7.67893 10.9368 7.79396 11.1017 7.96709 11.1645L8.40732 11.3232C8.59494 11.3904 8.76534 11.4983 8.90625 11.6392C9.04717 11.7801 9.1551 11.9505 9.22227 12.1382L9.38058 12.578C9.41108 12.6622 9.46676 12.735 9.54006 12.7864C9.61336 12.8378 9.70072 12.8654 9.79026 12.8655C9.87981 12.8655 9.9672 12.838 10.0405 12.7866C10.1139 12.7353 10.1696 12.6626 10.2002 12.5784L10.3589 12.1382C10.4263 11.9506 10.5342 11.7803 10.6751 11.6394C10.816 11.4985 10.9863 11.3905 11.1739 11.3232L11.6161 11.1641C11.7872 11.1013 11.9023 10.9368 11.9019 10.7543C11.9015 10.5718 11.7853 10.408 11.6137 10.346Z" fill="#90909B"/>
</svg>
