<svg width="15" height="15" viewBox="0 0 15 15" fill="none" xmlns="http://www.w3.org/2000/svg">
<path fill-rule="evenodd" clip-rule="evenodd" d="M3.4503 2.22223C3.67118 1.92772 4.01784 1.75439 4.38597 1.75439H9.64913C10.0173 1.75439 10.3639 1.92772 10.5848 2.22223L12.1638 4.32749C12.2397 4.42872 12.2807 4.55184 12.2807 4.67837V10.5263C12.2807 11.4952 11.4952 12.2807 10.5263 12.2807H3.50878C2.53986 12.2807 1.75439 11.4952 1.75439 10.5263V4.67837C1.75439 4.55184 1.79543 4.42872 1.87135 4.32749L3.4503 2.22223ZM9.82457 3.1579C9.71413 3.01065 9.5408 2.92399 9.35673 2.92399H4.67837C4.4943 2.92399 4.32098 3.01065 4.21053 3.1579L3.50878 4.09358H10.5263L9.82457 3.1579ZM11.1111 5.26317H2.92399V10.5263C2.92399 10.8493 3.18581 11.1111 3.50878 11.1111H10.5263C10.8493 11.1111 11.1111 10.8493 11.1111 10.5263V5.26317ZM7.01755 5.84796C7.34053 5.84796 7.60235 6.10978 7.60235 6.43276V8.52971L8.06603 8.06603C8.2944 7.83765 8.66468 7.83765 8.89305 8.06603C9.12143 8.2944 9.12143 8.66468 8.89305 8.89305L7.43106 10.355C7.20269 10.5834 6.83242 10.5834 6.60404 10.355L5.14205 8.89305C4.91367 8.66468 4.91367 8.2944 5.14205 8.06603C5.37043 7.83765 5.7407 7.83765 5.96908 8.06603L6.43276 8.52971V6.43276C6.43276 6.10978 6.69458 5.84796 7.01755 5.84796Z" fill="white"/>
</svg>
