<svg width="15" height="15" viewBox="0 0 15 15" fill="none" xmlns="http://www.w3.org/2000/svg">
<path d="M7.01736 1.16959C7.34033 1.16959 7.60215 1.43141 7.60215 1.75438C7.60215 2.07736 7.34033 2.33918 7.01736 2.33918C6.09207 2.33918 5.18768 2.61379 4.41833 3.12785C3.64902 3.64189 3.04945 4.37237 2.69535 5.22718C2.34128 6.08199 2.24818 7.02267 2.42866 7.93014C2.60917 8.83765 3.05476 9.67158 3.70904 10.3259C4.36332 10.9801 5.19724 11.4257 6.10476 11.6062C7.01223 11.7867 7.95291 11.6936 8.80772 11.3395C9.66253 10.9854 10.393 10.3859 10.907 9.61657C11.4211 8.84721 11.6957 7.94283 11.6957 7.01754C11.6957 6.69457 11.9575 6.43275 12.2805 6.43274C12.6035 6.43274 12.8653 6.69457 12.8653 7.01754C12.8653 8.17416 12.5222 9.30478 11.8796 10.2665C11.237 11.2281 10.324 11.978 9.25546 12.4206C8.18688 12.8632 7.01071 12.9786 5.87632 12.753C4.742 12.5273 3.69991 11.9706 2.8821 11.1528C2.06429 10.335 1.50758 9.2929 1.28191 8.15858C1.05626 7.02418 1.17166 5.84801 1.61428 4.77944C2.0569 3.71091 2.80678 2.79785 3.76843 2.15529C4.73012 1.51271 5.86074 1.16959 7.01736 1.16959ZM6.04993 3.64469C6.36037 3.55567 6.68445 3.73516 6.7735 4.04559C6.86253 4.35605 6.68306 4.68014 6.3726 4.76916L6.22983 4.81485C5.90135 4.93229 5.60255 5.12189 5.35606 5.37052C5.07434 5.65471 4.87024 6.0066 4.76327 6.3922C4.65631 6.77787 4.64986 7.18502 4.74499 7.57378C4.84011 7.96236 5.03358 8.31997 5.30637 8.61259C5.5793 8.90527 5.92295 9.12333 6.30407 9.24536C6.68525 9.36738 7.09174 9.38969 7.48394 9.30989C7.87606 9.23008 8.24129 9.05084 8.54445 8.78963C8.8476 8.52839 9.0786 8.19368 9.21548 7.81764C9.32592 7.51421 9.66131 7.35782 9.96475 7.46813C10.2682 7.57858 10.4246 7.91393 10.3143 8.2174C10.109 8.78143 9.76266 9.28354 9.308 9.67539C8.85319 10.0673 8.30524 10.3364 7.71694 10.4561C7.12869 10.5757 6.51944 10.5425 5.94771 10.3596C5.37596 10.1765 4.86088 9.84944 4.45145 9.4104C4.04202 8.97134 3.75179 8.43447 3.6091 7.85133C3.46645 7.26825 3.47553 6.65826 3.63594 6.07981C3.79637 5.50131 4.10305 4.97393 4.5257 4.54758C4.94829 4.12128 5.47294 3.81018 6.04993 3.64469ZM9.49817 1.64188C9.64715 1.4929 9.86507 1.43544 10.0681 1.49168C10.2711 1.54793 10.4282 1.70933 10.4793 1.91372L10.8077 3.22722L12.1212 3.5556C12.3256 3.60669 12.487 3.76375 12.5432 3.96678C12.5995 4.16982 12.542 4.38775 12.393 4.53673L10.5324 6.39734C10.4069 6.52288 10.2309 6.58475 10.0544 6.56524L8.47192 6.38934L7.43083 7.43101C7.20245 7.65938 6.83226 7.65938 6.60389 7.43101C6.37551 7.20263 6.37551 6.83245 6.60389 6.60407L7.64498 5.5624L7.46966 3.98106C7.45004 3.80449 7.51194 3.6281 7.63756 3.50249L9.49817 1.64188ZM8.66324 4.13011L8.78716 5.24716L9.90421 5.37109L10.8351 4.43964L10.1835 4.27688C9.97405 4.22448 9.81042 4.06085 9.75801 3.85142L9.59468 3.19924L8.66324 4.13011Z" fill="#90909B"/>
</svg>
