<svg width="15" height="15" viewBox="0 0 15 15" fill="none" xmlns="http://www.w3.org/2000/svg">
<path fill-rule="evenodd" clip-rule="evenodd" d="M8.0001 4.06232L4.75309 7.30931H6.10736C6.57256 7.30931 6.90847 7.75463 6.78069 8.202L6.27472 9.97276L9.52174 6.72574H8.16747C7.70227 6.72574 7.36636 6.28048 7.49414 5.83311L8.0001 4.06232ZM8.44876 1.96308C8.9597 1.45212 9.81578 1.95584 9.6173 2.65063L8.78642 5.55863H10.6488C11.2727 5.55863 11.5851 6.31293 11.144 6.7541L5.82606 12.0721C5.31511 12.583 4.45904 12.0792 4.65756 11.3845L5.48842 8.47644H3.626C3.00212 8.47644 2.68967 7.72217 3.13083 7.281L8.44876 1.96308Z" fill="black"/>
</svg>
