<svg width="15" height="15" viewBox="0 0 15 15" fill="none" xmlns="http://www.w3.org/2000/svg">
<path fill-rule="evenodd" clip-rule="evenodd" d="M5.42299 7.17707C6.59793 7.17707 7.54951 6.22544 7.54951 5.05051C7.54951 3.8756 6.59793 2.92397 5.42299 2.92397C4.24809 2.92397 3.29646 3.8756 3.29646 5.05051C3.29646 6.22544 4.24809 7.17707 5.42299 7.17707ZM5.42299 3.98724C6.00782 3.98724 6.48624 4.46571 6.48624 5.05051C6.48624 5.63531 6.00782 6.1138 5.42299 6.1138C4.8382 6.1138 4.35973 5.63531 4.35973 5.05051C4.35973 4.46571 4.8382 3.98724 5.42299 3.98724ZM10.7393 5.05051C10.7393 6.22544 9.78764 7.17707 8.61273 7.17707C8.3629 7.17707 8.12899 7.12386 7.90571 7.04947C8.34694 6.50187 8.61273 5.80543 8.61273 5.05051C8.61273 4.29559 8.34694 3.59915 7.90571 3.05156C8.12899 2.97714 8.3629 2.92397 8.61273 2.92397C9.78764 2.92397 10.7393 3.8756 10.7393 5.05051ZM10.7393 9.8352C10.7393 8.94204 10.2289 8.27222 9.50056 7.77777C10.9679 7.99046 12.8658 8.67625 12.8658 9.8352V10.8453C12.8658 11.1683 12.604 11.4301 12.281 11.4301H11.3241C11.0011 11.4301 10.7393 11.1683 10.7393 10.8453V9.8352ZM1.16992 9.8352C1.16992 8.42105 4.00353 7.70865 5.42299 7.70865C6.84244 7.70865 9.67606 8.42105 9.67606 9.8352V10.8453C9.67606 11.1683 9.41425 11.4301 9.09127 11.4301H1.75472C1.43175 11.4301 1.16992 11.1683 1.16992 10.8453V9.8352ZM2.23319 9.84052V10.3668H8.61279V9.8352C8.50647 9.45777 6.8584 8.77193 5.42299 8.77193C3.98758 8.77193 2.33952 9.45777 2.23319 9.84052Z" fill="#90909B"/>
</svg>
