<svg width="15" height="15" viewBox="0 0 15 15" fill="none" xmlns="http://www.w3.org/2000/svg">
<path fill-rule="evenodd" clip-rule="evenodd" d="M4.09341 2.33921C3.12449 2.33921 2.33902 3.12468 2.33902 4.09359V9.94155C2.33902 10.9105 3.12449 11.6959 4.09341 11.6959H8.62557V10.5486C8.62557 9.48669 9.48651 8.62576 10.5484 8.62576H11.6957V4.09359C11.6957 3.12467 10.9103 2.33921 9.94136 2.33921H4.09341ZM11.5798 9.79535H10.5484C10.1324 9.79535 9.79516 10.1326 9.79516 10.5486V11.58L9.79698 11.5793C9.983 11.5022 10.1519 11.3893 10.2943 11.247L11.2467 10.2945C11.3891 10.1521 11.5021 9.98318 11.5791 9.79716L11.5798 9.79535ZM1.16943 4.09359C1.16943 2.47873 2.47854 1.16962 4.09341 1.16962H9.94136C11.5562 1.16962 12.8653 2.47872 12.8653 4.09359V9.21055C12.8653 9.56546 12.7955 9.91687 12.6596 10.2448C12.5238 10.5727 12.3248 10.8706 12.0738 11.1215L11.1214 12.0739C10.8704 12.3249 10.5725 12.524 10.2446 12.6598C9.91668 12.7956 9.56528 12.8655 9.21037 12.8655H4.09341C2.47854 12.8655 1.16943 11.5564 1.16943 9.94155V4.09359ZM3.80101 4.38599C3.80101 4.06302 4.06284 3.8012 4.38581 3.8012H9.64897C9.97195 3.8012 10.2338 4.06302 10.2338 4.38599C10.2338 4.70896 9.97195 4.97079 9.64897 4.97079H4.38581C4.06284 4.97079 3.80101 4.70896 3.80101 4.38599ZM3.80101 7.01757C3.80101 6.69459 4.06284 6.43277 4.38581 6.43277H9.64897C9.97195 6.43277 10.2338 6.69459 10.2338 7.01757C10.2338 7.34055 9.97195 7.60237 9.64897 7.60237H4.38581C4.06284 7.60237 3.80101 7.34055 3.80101 7.01757ZM3.80101 9.64915C3.80101 9.32617 4.06284 9.06435 4.38581 9.06435H7.30978C7.63277 9.06435 7.89458 9.32617 7.89458 9.64915C7.89458 9.97213 7.63277 10.2339 7.30978 10.2339H4.38581C4.06284 10.2339 3.80101 9.97213 3.80101 9.64915Z" fill="black"/>
</svg>
