<svg width="15" height="15" viewBox="0 0 15 15" fill="none" xmlns="http://www.w3.org/2000/svg">
<path d="M4.7486 5.43274L7.01761 7.70174L9.28661 5.43274C9.34071 5.37853 9.40498 5.33552 9.47572 5.30617C9.54647 5.27682 9.6223 5.26172 9.69889 5.26172C9.77548 5.26172 9.85132 5.27682 9.92207 5.30617C9.99281 5.33552 10.0571 5.37853 10.1112 5.43274C10.3392 5.66081 10.3392 6.02923 10.1112 6.2573L7.42696 8.94151C7.19889 9.16958 6.83047 9.16958 6.6024 8.94151L3.91819 6.2573C3.69012 6.02923 3.69012 5.66081 3.91819 5.43274C4.14626 5.21052 4.52053 5.20467 4.7486 5.43274Z" fill="black"/>
</svg>
