<svg width="11" height="15" viewBox="0 0 11 15" fill="none" xmlns="http://www.w3.org/2000/svg">
<path fill-rule="evenodd" clip-rule="evenodd" d="M6.60465 9.18545C6.71431 9.29508 6.86303 9.35667 7.0181 9.35667C7.17316 9.35667 7.32188 9.29508 7.43155 9.18545L10.7397 5.87726C10.7956 5.82331 10.8401 5.75878 10.8708 5.68744C10.9014 5.61609 10.9176 5.53935 10.9182 5.4617C10.9189 5.38405 10.9041 5.30705 10.8747 5.23518C10.8453 5.16331 10.8019 5.09802 10.747 5.04311C10.6921 4.9882 10.6268 4.94478 10.5549 4.91537C10.483 4.88597 10.406 4.87117 10.3284 4.87185C10.2507 4.87252 10.174 4.88866 10.1027 4.9193C10.0313 4.94995 9.96678 4.9945 9.91283 5.05036L7.0181 7.94509L4.12336 5.05036C4.01307 4.94383 3.86535 4.88489 3.71202 4.88622C3.55868 4.88755 3.41201 4.94905 3.30358 5.05748C3.19516 5.16591 3.13366 5.31258 3.13232 5.46591C3.13099 5.61924 3.18994 5.76696 3.29646 5.87726L6.60465 9.18545Z" fill="#D9D9D9"/>
</svg>
