<svg width="23" height="23" viewBox="0 0 23 23" fill="none" xmlns="http://www.w3.org/2000/svg">
<g clip-path="url(#clip0_5_635)">
<path fill-rule="evenodd" clip-rule="evenodd" d="M5.37988 7.13452C5.37988 6.1656 6.16535 5.38013 7.13427 5.38013H11.8126C12.1356 5.38013 12.3974 5.64195 12.3974 5.96493C12.3974 6.2879 12.1356 6.54972 11.8126 6.54972H7.13427C6.8113 6.54972 6.54947 6.81154 6.54947 7.13452V15.3217C6.54947 15.6446 6.8113 15.9064 7.13427 15.9064H15.3214C15.6444 15.9064 15.9062 15.6446 15.9062 15.3217V10.6433C15.9062 10.3203 16.168 10.0585 16.491 10.0585C16.814 10.0585 17.0758 10.3203 17.0758 10.6433V15.3217C17.0758 16.2906 16.2903 17.076 15.3214 17.076H7.13427C6.16535 17.076 5.37988 16.2906 5.37988 15.3217V7.13452Z" fill="black"/>
<path fill-rule="evenodd" clip-rule="evenodd" d="M15.5403 6.49748C15.4261 6.38329 15.241 6.38329 15.1268 6.49748L14.7133 6.91099L15.5403 7.73802L15.9538 7.3245C16.068 7.21031 16.068 7.02518 15.9538 6.91099L15.5403 6.49748ZM14.7133 8.56504L13.8863 7.73802L8.88866 12.7356V13.5627H9.71568L14.7133 8.56504ZM14.7133 5.25694C15.0559 4.91437 15.6113 4.91437 15.9538 5.25694L17.1944 6.49748C17.537 6.84004 17.537 7.39545 17.1944 7.73802L10.3714 14.561C10.2618 14.6706 10.113 14.7323 9.95791 14.7323H8.30386C7.98089 14.7323 7.71906 14.4704 7.71906 14.1475V12.4934C7.71906 12.3383 7.78068 12.1896 7.89035 12.0799L14.7133 5.25694Z" fill="black"/>
</g>
<defs>
<clipPath id="clip0_5_635">
<rect width="14.0351" height="14.0351" fill="white" transform="translate(4.21045 4.21053)"/>
</clipPath>
</defs>
</svg>
