<svg width="15" height="15" viewBox="0 0 15 15" fill="none" xmlns="http://www.w3.org/2000/svg">
<path d="M5.19283 5.81289L5.50277 6.12283C5.67236 6.29242 5.95306 6.29242 6.12265 6.12283C6.29224 5.95324 6.29224 5.67254 6.12265 5.50295L5.60803 4.98833C5.55393 4.93412 5.48967 4.89111 5.41892 4.86176C5.34818 4.83242 5.27234 4.81731 5.19575 4.81731C5.11916 4.81731 5.04332 4.83242 4.97258 4.86176C4.90183 4.89111 4.83757 4.93412 4.78347 4.98833L4.263 5.50295C4.09341 5.67254 4.09341 5.95324 4.263 6.12283C4.43259 6.29242 4.71329 6.29242 4.88288 6.12283L5.19283 5.81289ZM7.01739 10.2339C8.20452 10.2339 9.23961 9.58482 9.79516 8.62576C9.90628 8.43277 9.76592 8.18716 9.53785 8.18716H4.49692C4.2747 8.18716 4.1285 8.43277 4.23961 8.62576C4.79516 9.58482 5.83025 10.2339 7.01739 10.2339ZM7.91212 6.12283C8.08171 6.29242 8.36242 6.29242 8.53201 6.12283L8.84195 5.81289L9.15189 6.12283C9.32148 6.29242 9.60218 6.29242 9.77177 6.12283C9.94136 5.95324 9.94136 5.67254 9.77177 5.50295L9.25715 4.98833C9.20305 4.93412 9.13879 4.89111 9.06804 4.86176C8.9973 4.83242 8.92146 4.81731 8.84487 4.81731C8.76828 4.81731 8.69244 4.83242 8.6217 4.86176C8.55096 4.89111 8.48669 4.93412 8.43259 4.98833L7.91797 5.50295C7.74253 5.67254 7.74253 5.95324 7.91212 6.12283ZM7.01154 1.16962C3.78347 1.16962 1.16943 3.78365 1.16943 7.01757C1.16943 10.2515 3.78347 12.8655 7.01154 12.8655C10.2396 12.8655 12.8653 10.2515 12.8653 7.01757C12.8653 3.78365 10.2455 1.16962 7.01154 1.16962ZM7.01739 11.6959C4.43259 11.6959 2.33902 9.60236 2.33902 7.01757C2.33902 4.43277 4.43259 2.33921 7.01739 2.33921C9.60218 2.33921 11.6957 4.43277 11.6957 7.01757C11.6957 9.60236 9.60218 11.6959 7.01739 11.6959Z" fill="black"/>
</svg>
