<svg width="15" height="15" viewBox="0 0 15 15" fill="none" xmlns="http://www.w3.org/2000/svg">
<path fill-rule="evenodd" clip-rule="evenodd" d="M3.50878 7.60234C4.27244 7.60234 4.92051 8.09082 5.16151 8.77193H11.6959C12.0189 8.77193 12.2807 9.03374 12.2807 9.35673C12.2807 9.67971 12.0189 9.94152 11.6959 9.94152H5.16151C4.92051 10.6226 4.27244 11.1111 3.50878 11.1111C2.53986 11.1111 1.75439 10.3257 1.75439 9.35673C1.75439 8.38778 2.53986 7.60234 3.50878 7.60234ZM3.50878 8.77193C3.18581 8.77193 2.92399 9.03374 2.92399 9.35673C2.92399 9.67971 3.18581 9.94152 3.50878 9.94152C3.83175 9.94152 4.09358 9.67971 4.09358 9.35673C4.09358 9.03374 3.83175 8.77193 3.50878 8.77193Z" fill="black"/>
<path fill-rule="evenodd" clip-rule="evenodd" d="M10.5263 2.92397C11.4953 2.92397 12.2807 3.70943 12.2807 4.67835C12.2807 5.64727 11.4953 6.43274 10.5263 6.43274C9.76264 6.43274 9.11457 5.94426 8.87358 5.26315H2.33919C2.01622 5.26315 1.75439 5.00132 1.75439 4.67835C1.75439 4.35538 2.01622 4.09356 2.33919 4.09356H8.87358C9.11457 3.41246 9.76264 2.92397 10.5263 2.92397ZM10.5263 4.09356C10.2033 4.09356 9.94153 4.35538 9.94153 4.67835C9.94153 5.00132 10.2033 5.26315 10.5263 5.26315C10.8493 5.26315 11.1111 5.00132 11.1111 4.67835C11.1111 4.35538 10.8493 4.09356 10.5263 4.09356Z" fill="black"/>
</svg>
