<svg width="15" height="15" viewBox="0 0 15 15" fill="none" xmlns="http://www.w3.org/2000/svg">
<path d="M6.24758 5.66253C5.98652 5.92352 5.63252 6.07019 5.26339 6.07019C4.89426 6.07019 4.54025 5.92352 4.27923 5.66253C4.01822 5.40151 3.87158 5.0475 3.87158 4.67837C3.87158 4.30924 4.01822 3.95523 4.27923 3.69421C4.54025 3.43319 4.89426 3.28656 5.26339 3.28656C5.63252 3.28656 5.98652 3.43319 6.24758 3.69421C6.50857 3.95523 6.65518 4.30924 6.65518 4.67837C6.65518 5.0475 6.50857 5.40151 6.24758 5.66253Z" fill="black"/>
<path fill-rule="evenodd" clip-rule="evenodd" d="M1.16943 4.09359C1.16943 2.47873 2.47854 1.16962 4.09341 1.16962H9.94136C11.5562 1.16962 12.8653 2.47873 12.8653 4.09359V9.94155C12.8653 11.5564 11.5562 12.8655 9.94136 12.8655H4.09341C2.47854 12.8655 1.16943 11.5564 1.16943 9.94155V4.09359ZM4.09341 2.33921C3.12449 2.33921 2.33902 3.12468 2.33902 4.09359V9.94155C2.33902 10.1369 2.37094 10.3247 2.42983 10.5001L4.43844 9.15213C4.90628 8.83634 5.56709 8.87143 5.9823 9.234L6.18113 9.39775C6.63727 9.78956 7.37411 9.78956 7.83025 9.39775L10.263 7.31003C10.6524 6.97546 11.2465 6.92658 11.6957 7.16324V4.09359C11.6957 3.12468 10.9103 2.33921 9.94136 2.33921H4.09341Z" fill="black"/>
</svg>
