<svg width="15" height="15" viewBox="0 0 15 15" fill="none" xmlns="http://www.w3.org/2000/svg">
<path d="M2.92423 12.2807C2.60259 12.2807 2.32725 12.1662 2.09821 11.9371C1.86916 11.7081 1.75464 11.4327 1.75464 11.1111V2.92397C1.75464 2.60233 1.86916 2.32699 2.09821 2.09795C2.32725 1.8689 2.60259 1.75438 2.92423 1.75438H11.1114C11.433 1.75438 11.7083 1.8689 11.9374 2.09795C12.1664 2.32699 12.281 2.60233 12.281 2.92397V11.1111C12.281 11.4327 12.1664 11.7081 11.9374 11.9371C11.7083 12.1662 11.433 12.2807 11.1114 12.2807H2.92423ZM2.92423 10.4093C2.92423 10.7969 3.23842 11.1111 3.62598 11.1111H10.4096C10.7972 11.1111 11.1114 10.7969 11.1114 10.4093V8.77192H9.35698C9.06458 9.14229 8.71614 9.42982 8.31166 9.6345C7.90717 9.83917 7.47589 9.94151 7.0178 9.94151C6.55971 9.94151 6.12842 9.83917 5.72394 9.6345C5.31945 9.42982 4.97101 9.14229 4.67862 8.77192H2.92423V10.4093ZM7.0178 8.77192C7.32969 8.77192 7.61721 8.69151 7.88037 8.53069C8.14353 8.36988 8.35795 8.15789 8.52364 7.89473C8.58212 7.80701 8.65522 7.73635 8.74294 7.68274C8.83066 7.62914 8.92813 7.60233 9.03534 7.60233H11.1114V3.62572C11.1114 3.23816 10.7972 2.92397 10.4096 2.92397H3.62598C3.23842 2.92397 2.92423 3.23816 2.92423 3.62572V7.60233H5.00025C5.10747 7.60233 5.20493 7.62914 5.29265 7.68274C5.38037 7.73635 5.45347 7.80701 5.51195 7.89473C5.67764 8.15789 5.89207 8.36988 6.15522 8.53069C6.41838 8.69151 6.70591 8.77192 7.0178 8.77192Z" fill="black"/>
</svg>
