<svg width="17" height="17" viewBox="0 0 17 17" fill="none" xmlns="http://www.w3.org/2000/svg">
<g clip-path="url(#clip0_5_622)">
<rect width="16.8421" height="16.8421" rx="8.42105" fill="url(#paint0_linear_5_622)"/>
<path d="M8.43371 9.98366C7.57143 9.98366 6.87215 9.28564 6.87215 8.42489C6.87215 7.56414 7.57143 6.86611 8.43371 6.86611C9.296 6.86611 9.99527 7.56414 9.99527 8.42489C9.99527 9.28564 9.296 9.98366 8.43371 9.98366Z" fill="white"/>
<path fill-rule="evenodd" clip-rule="evenodd" d="M12.871 11.4878C12.6276 12.1166 12.1297 12.6137 11.4998 12.8566C11.2032 12.9716 10.8613 13.0524 10.3634 13.0742C9.86338 13.0964 9.7044 13.1018 8.432 13.1018C7.15959 13.1018 7.00032 13.0964 6.50064 13.0742C6.00268 13.0524 5.66226 12.9719 5.36388 12.8569C5.05255 12.7402 4.76887 12.5553 4.53443 12.3178C4.29654 12.0838 4.11164 11.8024 3.99269 11.4881C3.8772 11.1923 3.79656 10.8505 3.77467 10.3534C3.75279 9.85461 3.74731 9.69563 3.74731 8.42549C3.74731 7.15536 3.75279 6.99637 3.77669 6.49557C3.79858 5.99849 3.87922 5.65868 3.99442 5.36084C4.11164 5.05035 4.29654 4.76717 4.53443 4.53315C4.76887 4.29367 5.05082 4.11083 5.36561 3.99209C5.66226 3.8771 6.00441 3.7966 6.50236 3.77475C7.00205 3.7529 7.16161 3.74744 8.43372 3.74744C9.70584 3.74744 9.86511 3.7529 10.3668 3.77676C10.8648 3.79861 11.2052 3.87911 11.5036 3.9941C11.8149 4.11083 12.0986 4.2954 12.333 4.53315C12.5726 4.76688 12.7558 5.04833 12.8748 5.36256C12.99 5.65868 13.0706 6.00022 13.0925 6.49729C13.0962 6.57836 13.0991 6.65052 13.1017 6.71981V10.0409C13.098 10.1389 13.0939 10.2367 13.0887 10.3531C13.0669 10.8502 12.9862 11.19 12.871 11.4878ZM10.9359 5.3663C11.2464 5.3663 11.4981 5.61728 11.4981 5.92719C11.4981 6.23711 11.2461 6.48809 10.9359 6.48809C10.6257 6.48809 10.374 6.23682 10.374 5.92719C10.374 5.61756 10.6254 5.3663 10.9359 5.3663ZM10.997 8.42463C10.997 9.84536 9.84524 10.9971 8.42451 10.9971C7.00378 10.9971 5.85205 9.84536 5.85205 8.42463C5.85205 7.0039 7.00378 5.85217 8.42451 5.85217C9.84524 5.85217 10.997 7.0039 10.997 8.42463Z" fill="white"/>
</g>
<defs>
<linearGradient id="paint0_linear_5_622" x1="8.42105" y1="0" x2="8.42105" y2="16.8421" gradientUnits="userSpaceOnUse">
<stop stop-color="#A032C2"/>
<stop offset="0.442308" stop-color="#DB4186"/>
<stop offset="0.697115" stop-color="#EF4C5E"/>
<stop offset="1" stop-color="#FF8646"/>
</linearGradient>
<clipPath id="clip0_5_622">
<rect width="16.8421" height="16.8421" rx="8.42105" fill="white"/>
</clipPath>
</defs>
</svg>
