<svg width="15" height="15" viewBox="0 0 15 15" fill="none" xmlns="http://www.w3.org/2000/svg">
<path d="M7.89502 3.50878C7.89502 3.38598 7.89502 3.32545 7.888 3.27457C7.86567 3.11379 7.79149 2.96469 7.6767 2.84991C7.56192 2.73513 7.41282 2.66094 7.25204 2.63861C7.20204 2.63159 7.14063 2.63159 7.01783 2.63159C6.89502 2.63159 6.83449 2.63159 6.78362 2.63861C6.62283 2.66094 6.47373 2.73513 6.35895 2.84991C6.24417 2.96469 6.16998 3.11379 6.14765 3.27457C6.14063 3.32457 6.14063 3.38598 6.14063 3.50878C6.14063 3.63159 6.14063 3.69212 6.14765 3.743C6.16998 3.90378 6.24417 4.05288 6.35895 4.16766C6.47373 4.28244 6.62283 4.35663 6.78362 4.37896C6.83362 4.38598 6.89502 4.38598 7.01783 4.38598C7.14063 4.38598 7.20116 4.38598 7.25204 4.37896C7.41282 4.35663 7.56192 4.28244 7.6767 4.16766C7.79149 4.05288 7.86567 3.90378 7.888 3.743C7.89502 3.693 7.89502 3.63159 7.89502 3.50878ZM7.89502 7.01756C7.89502 6.89475 7.89502 6.83422 7.888 6.78335C7.86567 6.62256 7.79149 6.47346 7.6767 6.35868C7.56192 6.2439 7.41282 6.16971 7.25204 6.14738C7.20204 6.14036 7.14063 6.14036 7.01783 6.14036C6.89502 6.14036 6.83449 6.14036 6.78362 6.14738C6.62283 6.16971 6.47373 6.2439 6.35895 6.35868C6.24417 6.47346 6.16998 6.62256 6.14765 6.78335C6.14063 6.83335 6.14063 6.89475 6.14063 7.01756C6.14063 7.14036 6.14063 7.20089 6.14765 7.25177C6.16998 7.41255 6.24417 7.56165 6.35895 7.67643C6.47373 7.79122 6.62283 7.8654 6.78362 7.88773C6.83362 7.89475 6.89502 7.89475 7.01783 7.89475C7.14063 7.89475 7.20116 7.89475 7.25204 7.88773C7.41282 7.8654 7.56192 7.79122 7.6767 7.67643C7.79149 7.56165 7.86567 7.41255 7.888 7.25177C7.89502 7.20177 7.89502 7.14036 7.89502 7.01756ZM7.89502 10.5263C7.89502 10.4044 7.89502 10.343 7.888 10.2921C7.86554 10.1316 7.7914 9.98281 7.67681 9.86822C7.56222 9.75363 7.41341 9.67949 7.25291 9.65703C7.20116 9.65001 7.14063 9.65001 7.0187 9.65001C6.89677 9.65001 6.83449 9.65001 6.78449 9.65703C6.624 9.67949 6.47519 9.75363 6.3606 9.86822C6.246 9.98281 6.17186 10.1316 6.14941 10.2921C6.14239 10.343 6.14239 10.4044 6.14239 10.5263C6.14239 10.6483 6.14239 10.7097 6.14941 10.7605C6.17186 10.921 6.246 11.0698 6.3606 11.1844C6.47519 11.299 6.624 11.3732 6.78449 11.3956C6.83537 11.4026 6.89677 11.4026 7.0187 11.4026C7.14063 11.4026 7.20204 11.4026 7.25291 11.3956C7.41341 11.3732 7.56222 11.299 7.67681 11.1844C7.7914 11.0698 7.86554 10.921 7.888 10.7605C7.89502 10.7097 7.89502 10.6483 7.89502 10.5263Z" fill="black"/>
</svg>
