<svg width="15" height="15" viewBox="0 0 15 15" fill="none" xmlns="http://www.w3.org/2000/svg">
<path d="M7.01752 8.18716C7.98828 8.18716 8.7719 7.40353 8.7719 6.43277V2.924C8.7719 1.95324 7.98828 1.16962 7.01752 1.16962C6.04676 1.16962 5.26313 1.95324 5.26313 2.924V6.43277C5.26313 7.40353 6.04676 8.18716 7.01752 8.18716ZM10.4737 6.43277C10.1871 6.43277 9.94734 6.6433 9.90056 6.92985C9.66079 8.30412 8.46196 9.35675 7.01752 9.35675C5.57307 9.35675 4.37424 8.30412 4.13447 6.92985C4.08769 6.6433 3.84793 6.43277 3.56138 6.43277C3.20465 6.43277 2.92395 6.74856 2.97658 7.09944C3.26313 8.85383 4.66664 10.2281 6.43272 10.4796V11.6959C6.43272 12.0176 6.69588 12.2807 7.01752 12.2807C7.33915 12.2807 7.60231 12.0176 7.60231 11.6959V10.4796C9.36839 10.2281 10.7719 8.85383 11.0585 7.09944C11.1169 6.74856 10.8304 6.43277 10.4737 6.43277Z" fill="black"/>
</svg>
