<svg width="17" height="17" viewBox="0 0 17 17" fill="none" xmlns="http://www.w3.org/2000/svg">
<g opacity="0.24">
<path d="M8.42135 1.40356C7.95358 1.40356 7.49583 1.44943 7.05256 1.53712C6.67236 1.61234 6.42512 1.98152 6.50034 2.36172C6.57555 2.74192 6.94474 2.98916 7.32494 2.91395C7.67898 2.84391 8.04552 2.80707 8.42135 2.80707C8.79719 2.80707 9.16372 2.84391 9.51777 2.91395C9.89797 2.98916 10.2672 2.74192 10.3424 2.36172C10.4176 1.98152 10.1703 1.61234 9.79014 1.53712C9.34688 1.44943 8.88912 1.40356 8.42135 1.40356Z" fill="black"/>
<path d="M12.3209 2.58598C11.9988 2.37037 11.563 2.45666 11.3474 2.77872C11.1318 3.10077 11.218 3.53664 11.5401 3.75225C12.1526 4.16232 12.6801 4.68984 13.0902 5.30236C13.3058 5.62441 13.7417 5.7107 14.0637 5.49509C14.3858 5.27948 14.4721 4.84361 14.2565 4.52156C13.7443 3.75659 13.0859 3.09812 12.3209 2.58598Z" fill="black"/>
<path d="M5.3026 3.75225C5.62466 3.53664 5.71095 3.10077 5.49534 2.77872C5.27972 2.45666 4.84386 2.37037 4.5218 2.58598C3.75683 3.09812 3.09836 3.75659 2.58622 4.52156C2.37061 4.84361 2.4569 5.27948 2.77896 5.49509C3.10102 5.7107 3.53688 5.62441 3.7525 5.30236C4.16257 4.68984 4.69008 4.16232 5.3026 3.75225Z" fill="black"/>
<path d="M2.91419 7.32469C2.98941 6.94449 2.74217 6.57531 2.36197 6.50009C1.98177 6.42488 1.61258 6.67212 1.53737 7.05232C1.44967 7.49558 1.40381 7.95334 1.40381 8.42111C1.40381 8.88888 1.44967 9.34663 1.53737 9.7899C1.61258 10.1701 1.98177 10.4173 2.36197 10.3421C2.74217 10.2669 2.98941 9.89772 2.91419 9.51752C2.84415 9.16348 2.80732 8.79694 2.80732 8.42111C2.80732 8.04527 2.84415 7.67874 2.91419 7.32469Z" fill="black"/>
<path d="M15.3053 7.05232C15.2301 6.67212 14.8609 6.42488 14.4807 6.50009C14.1005 6.57531 13.8533 6.9445 13.9285 7.32469C13.9986 7.67874 14.0354 8.04527 14.0354 8.42111C14.0354 8.79694 13.9986 9.16348 13.9285 9.51752C13.8533 9.89772 14.1005 10.2669 14.4807 10.3421C14.8609 10.4173 15.2301 10.1701 15.3053 9.7899C15.393 9.34663 15.4389 8.88888 15.4389 8.42111C15.4389 7.95334 15.393 7.49558 15.3053 7.05232Z" fill="black"/>
<path d="M14.2565 12.3207C14.4721 11.9986 14.3858 11.5627 14.0637 11.3471C13.7417 11.1315 13.3058 11.2178 13.0902 11.5399C13.0326 11.6259 12.9727 11.7103 12.9105 11.7929C12.8248 11.6899 12.7164 11.6057 12.5851 11.54C11.9405 11.1657 11.2596 10.8902 10.5422 10.7135C9.82486 10.5368 9.09192 10.4484 8.34338 10.4484C7.59484 10.4484 6.8619 10.5368 6.14455 10.7135C5.4272 10.8902 4.74624 11.1657 4.10166 11.54C4.01585 11.5877 3.93879 11.6441 3.87047 11.7093C3.83014 11.6536 3.7908 11.5971 3.7525 11.5399C3.53688 11.2178 3.10102 11.1315 2.77896 11.3471C2.4569 11.5627 2.37061 11.9986 2.58622 12.3207C3.09836 13.0856 3.75683 13.7441 4.5218 14.2562C4.64175 14.3365 4.77749 14.375 4.91175 14.3749C5.21295 14.5794 5.53031 14.7572 5.86385 14.9084C6.22473 15.072 6.59563 15.1978 6.97656 15.2857C7.00123 15.2934 7.02659 15.3 7.05256 15.3051C7.10097 15.3147 7.14954 15.3237 7.19829 15.3323C7.5706 15.4032 7.9523 15.4387 8.34338 15.4387C8.35605 15.4387 8.36872 15.4386 8.38138 15.4385C8.39469 15.4386 8.40802 15.4387 8.42135 15.4387C8.88912 15.4387 9.34688 15.3928 9.79014 15.3051C9.88604 15.2861 9.97348 15.2484 10.0494 15.1966C10.3122 15.1191 10.57 15.0231 10.8229 14.9084C11.1637 14.754 11.4876 14.5717 11.7946 14.3616C11.9707 14.3963 12.16 14.364 12.3209 14.2562C13.0859 13.7441 13.7443 13.0856 14.2565 12.3207Z" fill="black"/>
<path d="M10.1056 8.46789C9.61693 8.95652 9.02954 9.20084 8.34338 9.20084C7.65722 9.20084 7.06983 8.95652 6.5812 8.46789C6.09257 7.97926 5.84825 7.39187 5.84825 6.70571C5.84825 6.01955 6.09257 5.43215 6.5812 4.94353C7.06983 4.4549 7.65722 4.21058 8.34338 4.21058C9.02954 4.21058 9.61693 4.4549 10.1056 4.94353C10.5942 5.43215 10.8385 6.01955 10.8385 6.70571C10.8385 7.39187 10.5942 7.97926 10.1056 8.46789Z" fill="black"/>
</g>
</svg>
