<svg width="24" height="24" viewBox="0 0 24 24" fill="none" xmlns="http://www.w3.org/2000/svg">
<path fill-rule="evenodd" clip-rule="evenodd" d="M9.27275 12.2728C11.2819 12.2728 12.9091 10.6455 12.9091 8.63638C12.9091 6.62728 11.2819 5 9.27275 5C7.26366 5 5.63638 6.62728 5.63638 8.63638C5.63638 10.6455 7.26366 12.2728 9.27275 12.2728ZM9.27275 6.81819C10.2728 6.81819 11.0909 7.63637 11.0909 8.63638C11.0909 9.63638 10.2728 10.4546 9.27275 10.4546C8.27275 10.4546 7.45457 9.63638 7.45457 8.63638C7.45457 7.63637 8.27275 6.81819 9.27275 6.81819ZM18.3636 8.63638C18.3636 10.6455 16.7363 12.2728 14.7272 12.2728C14.3 12.2728 13.9 12.1818 13.5182 12.0546C14.2727 11.1182 14.7272 9.92729 14.7272 8.63638C14.7272 7.34546 14.2727 6.15455 13.5182 5.21818C13.9 5.09091 14.3 5 14.7272 5C16.7363 5 18.3636 6.62728 18.3636 8.63638ZM18.3636 16.8182C18.3636 15.2909 17.4909 14.1455 16.2454 13.3C18.7545 13.6637 22 14.8364 22 16.8182V18.5455C22 19.0978 21.5523 19.5455 21 19.5455H19.3636C18.8113 19.5455 18.3636 19.0978 18.3636 18.5455V16.8182ZM2 16.8182C2 14.4 6.84547 13.1818 9.27275 13.1818C11.7 13.1818 16.5455 14.4 16.5455 16.8182V18.5455C16.5455 19.0978 16.0978 19.5455 15.5455 19.5455H3C2.44772 19.5455 2 19.0978 2 18.5455V16.8182ZM3.81819 16.8273V17.7273H14.7273V16.8182C14.5455 16.1728 11.7273 15 9.27275 15C6.8182 15 4.00001 16.1728 3.81819 16.8273Z" fill="#90909B"/>
</svg>
