<svg width="15" height="15" viewBox="0 0 15 15" fill="none" xmlns="http://www.w3.org/2000/svg">
<path fill-rule="evenodd" clip-rule="evenodd" d="M4.67862 4.09356C4.67862 3.47317 4.92506 2.87819 5.36375 2.43951C5.80243 2.00083 6.39741 1.75438 7.0178 1.75438C7.63819 1.75438 8.23317 2.00083 8.67185 2.43951C9.11053 2.87819 9.35698 3.47317 9.35698 4.09356C9.35698 4.71395 9.11053 5.30893 8.67185 5.74761C8.23317 6.18629 7.63819 6.43274 7.0178 6.43274C6.39741 6.43274 5.80243 6.18629 5.36375 5.74761C4.92506 5.30893 4.67862 4.71395 4.67862 4.09356ZM4.67862 7.60233C3.90313 7.60233 3.1594 7.91039 2.61105 8.45875C2.0627 9.0071 1.75464 9.75082 1.75464 10.5263C1.75464 10.9916 1.93948 11.4378 2.26849 11.7668C2.5975 12.0959 3.04373 12.2807 3.50902 12.2807H10.5266C10.9919 12.2807 11.4381 12.0959 11.7671 11.7668C12.0961 11.4378 12.281 10.9916 12.281 10.5263C12.281 9.75082 11.9729 9.0071 11.4245 8.45875C10.8762 7.91039 10.1325 7.60233 9.35698 7.60233H4.67862Z" fill="black"/>
</svg>
