<svg width="15" height="15" viewBox="0 0 15 15" fill="none" xmlns="http://www.w3.org/2000/svg">
<g clip-path="url(#clip0_5_497)">
<path d="M9.35738 6.43265C10.3281 6.43265 11.1059 5.64902 11.1059 4.67826C11.1059 3.7075 10.3281 2.92387 9.35738 2.92387C8.38662 2.92387 7.60299 3.7075 7.60299 4.67826C7.60299 5.64902 8.38662 6.43265 9.35738 6.43265ZM4.67902 6.43265C5.64978 6.43265 6.42755 5.64902 6.42755 4.67826C6.42755 3.7075 5.64978 2.92387 4.67902 2.92387C3.70826 2.92387 2.92463 3.7075 2.92463 4.67826C2.92463 5.64902 3.70826 6.43265 4.67902 6.43265ZM4.67902 7.60224C3.31644 7.60224 0.585449 8.28645 0.585449 9.64902V11.111H8.77258V9.64902C8.77258 8.28645 6.04159 7.60224 4.67902 7.60224ZM9.35738 7.60224C9.18779 7.60224 8.99481 7.61393 8.79013 7.63148C9.46849 8.1227 9.94217 8.78352 9.94217 9.64902V11.111H13.4509V9.64902C13.4509 8.28645 10.72 7.60224 9.35738 7.60224Z" fill="black"/>
</g>
<defs>
<clipPath id="clip0_5_497">
<rect width="14.0351" height="14.0351" fill="white"/>
</clipPath>
</defs>
</svg>
