<svg width="15" height="15" viewBox="0 0 15 15" fill="none" xmlns="http://www.w3.org/2000/svg">
<path d="M7.01787 1.16959C3.7898 1.16959 1.16992 3.78947 1.16992 7.01754C1.16992 10.2456 3.7898 12.8655 7.01787 12.8655C10.2459 12.8655 12.8658 10.2456 12.8658 7.01754C12.8658 3.78947 10.2459 1.16959 7.01787 1.16959ZM9.12898 4.87719C9.75472 4.87719 10.2576 5.38011 10.2576 6.00584C10.2576 6.63157 9.75472 7.1345 9.12898 7.1345C8.50325 7.1345 8.00033 6.63157 8.00033 6.00584C7.99448 5.38011 8.50325 4.87719 9.12898 4.87719ZM5.62021 3.95321C6.38045 3.95321 7.00033 4.57309 7.00033 5.33333C7.00033 6.09356 6.38045 6.71344 5.62021 6.71344C4.85998 6.71344 4.2401 6.09356 4.2401 5.33333C4.2401 4.56725 4.85413 3.95321 5.62021 3.95321ZM5.62021 9.29239V11.4854C4.2167 11.0468 3.10559 9.96491 2.61437 8.58479C3.2284 7.92982 4.76056 7.59649 5.62021 7.59649C5.93015 7.59649 6.32197 7.64327 6.73132 7.72514C5.77226 8.23391 5.62021 8.90643 5.62021 9.29239ZM7.01787 11.6959C6.85998 11.6959 6.70793 11.6901 6.55589 11.6725V9.29239C6.55589 8.46198 8.27518 8.04678 9.12898 8.04678C9.75472 8.04678 10.8366 8.27485 11.3746 8.71929C10.6904 10.4561 9.00033 11.6959 7.01787 11.6959Z" fill="#AFBFC0"/>
</svg>
