<svg width="10" height="10" viewBox="0 0 10 10" fill="none" xmlns="http://www.w3.org/2000/svg">
<path d="M7.31031 6.43312H6.84832L6.68458 6.27522C7.38633 5.45651 7.7489 4.33955 7.55007 3.15241C7.27522 1.52668 5.91849 0.228436 4.28107 0.0296056C1.80738 -0.274488 -0.274488 1.80738 0.0296056 4.28107C0.228436 5.91849 1.52668 7.27522 3.15241 7.55007C4.33955 7.7489 5.45651 7.38633 6.27522 6.68458L6.43312 6.84832V7.31031L8.9185 9.79569C9.15826 10.0355 9.55007 10.0355 9.78984 9.79569C10.0296 9.55592 10.0296 9.16411 9.78984 8.92434L7.31031 6.43312ZM3.80154 6.43312C2.3454 6.43312 1.16996 5.25768 1.16996 3.80154C1.16996 2.3454 2.3454 1.16996 3.80154 1.16996C5.25768 1.16996 6.43312 2.3454 6.43312 3.80154C6.43312 5.25768 5.25768 6.43312 3.80154 6.43312Z" fill="black"/>
</svg>
