<svg width="12" height="12" viewBox="0 0 12 12" fill="none" xmlns="http://www.w3.org/2000/svg">
<path d="M10.0347 6.42108C10.0581 6.23394 10.0756 6.04681 10.0756 5.84798C10.0756 5.64915 10.0581 5.46202 10.0347 5.27488L11.2686 4.30997C11.3797 4.22225 11.409 4.06435 11.3388 3.9357L10.1692 1.91231C10.1347 1.85197 10.0799 1.80589 10.0145 1.78231C9.94915 1.75873 9.87752 1.75921 9.81247 1.78365L8.35633 2.36845C8.05224 2.13453 7.72476 1.94155 7.36803 1.79535L7.14581 0.245641C7.13613 0.176835 7.10169 0.113922 7.04893 0.0687033C6.99618 0.0234843 6.92873 -0.000934347 6.85926 2.73619e-05H4.52008C4.37388 2.73619e-05 4.25107 0.105291 4.23353 0.245641L4.0113 1.79535C3.65458 1.94155 3.32709 2.14038 3.023 2.36845L1.56686 1.78365C1.53295 1.77215 1.4974 1.76622 1.4616 1.76611C1.36218 1.76611 1.26277 1.81874 1.21014 1.91231L0.0405448 3.9357C-0.0354786 4.06435 -0.00039082 4.22225 0.11072 4.30997L1.34464 5.27488C1.32125 5.46202 1.3037 5.655 1.3037 5.84798C1.3037 6.04096 1.32125 6.23394 1.34464 6.42108L0.11072 7.38599C-0.00039082 7.47371 -0.0296307 7.63161 0.0405448 7.76026L1.21014 9.78365C1.24461 9.84399 1.29945 9.89007 1.36481 9.91365C1.43018 9.93723 1.50181 9.93675 1.56686 9.91231L3.023 9.32751C3.32709 9.56143 3.65458 9.75441 4.0113 9.90061L4.23353 11.4503C4.25107 11.5907 4.37388 11.6959 4.52008 11.6959H6.85926C7.00546 11.6959 7.12826 11.5907 7.14581 11.4503L7.36803 9.90061C7.72476 9.75441 8.05224 9.55558 8.35633 9.32751L9.81247 9.91231C9.84756 9.924 9.88265 9.92985 9.91774 9.92985C10.0172 9.92985 10.1166 9.87722 10.1692 9.78365L11.3388 7.76026C11.409 7.63161 11.3797 7.47371 11.2686 7.38599L10.0347 6.42108ZM8.8768 5.42108C8.90019 5.60237 8.90604 5.72517 8.90604 5.84798C8.90604 5.97079 8.89435 6.09944 8.8768 6.27488L8.79493 6.9357L9.3154 7.34506L9.94698 7.83628L9.53762 8.54389L8.79493 8.24564L8.18674 8.00003L7.66043 8.39769C7.40897 8.58482 7.1692 8.72517 6.92943 8.82459L6.30955 9.07605L6.21598 9.73687L6.09902 10.5263H5.28031L5.1692 9.73687L5.07563 9.07605L4.45575 8.82459C4.20429 8.71932 3.97037 8.58482 3.73645 8.40938L3.20429 8.00003L2.5844 8.25149L1.84171 8.54973L1.43236 7.84213L2.06394 7.3509L2.5844 6.94155L2.50253 6.28073C2.48499 6.09944 2.47329 5.96494 2.47329 5.84798C2.47329 5.73102 2.48499 5.59652 2.50253 5.42108L2.5844 4.76026L2.06394 4.3509L1.43236 3.85968L1.84171 3.15207L2.5844 3.45032L3.19259 3.69593L3.71891 3.29827C3.97037 3.11114 4.21014 2.97079 4.4499 2.87137L5.06978 2.61991L5.16335 1.95909L5.28031 1.16962H6.09318L6.20429 1.95909L6.29785 2.61991L6.91774 2.87137C7.1692 2.97663 7.40312 3.11114 7.63704 3.28658L8.1692 3.69593L8.78908 3.44447L9.53177 3.14623L9.94113 3.85383L9.3154 4.3509L8.79493 4.76026L8.8768 5.42108ZM5.68967 3.5088C4.39727 3.5088 3.35049 4.55558 3.35049 5.84798C3.35049 7.14038 4.39727 8.18716 5.68967 8.18716C6.98207 8.18716 8.02885 7.14038 8.02885 5.84798C8.02885 4.55558 6.98207 3.5088 5.68967 3.5088ZM5.68967 7.01757C5.04639 7.01757 4.52008 6.49125 4.52008 5.84798C4.52008 5.2047 5.04639 4.67839 5.68967 4.67839C6.33294 4.67839 6.85926 5.2047 6.85926 5.84798C6.85926 6.49125 6.33294 7.01757 5.68967 7.01757Z" fill="#90909B"/>
</svg>
