<svg width="15" height="15" viewBox="0 0 15 15" fill="none" xmlns="http://www.w3.org/2000/svg">
<path d="M12.0246 7.75263C11.9169 7.7256 11.8092 7.75263 11.715 7.82022C11.365 8.11758 10.9612 8.36088 10.517 8.52308C10.0997 8.68528 9.6421 8.76638 9.15753 8.76638C8.06725 8.76638 7.07119 8.32033 6.3578 7.60395C5.6444 6.88757 5.20022 5.88733 5.20022 4.79248C5.20022 4.33292 5.28098 3.88687 5.41558 3.48137C5.56364 3.04884 5.77901 2.65685 6.06167 2.31894C6.18281 2.17025 6.15589 1.95399 6.00783 1.83234C5.91361 1.76475 5.80593 1.73772 5.69825 1.76475C4.55413 2.07564 3.55807 2.76499 2.84467 3.68412C2.1582 4.58973 1.75439 5.71162 1.75439 6.92812C1.75439 8.40143 2.34665 9.73958 3.31578 10.7128C4.28492 11.686 5.60402 12.2807 7.08465 12.2807C8.32299 12.2807 9.46711 11.8482 10.3824 11.1318C11.3112 10.4019 11.9842 9.36111 12.2668 8.17165C12.3207 7.98242 12.213 7.79318 12.0246 7.75263Z" fill="black"/>
<path fill-rule="evenodd" clip-rule="evenodd" d="M8.62601 3.21638C8.43214 3.21638 8.24621 3.13937 8.10912 3.00228C7.97203 2.86519 7.89502 2.67926 7.89502 2.48539C7.89502 2.29152 7.97203 2.10559 8.10912 1.9685C8.24621 1.83141 8.43214 1.75439 8.62601 1.75439H11.55C11.6945 1.75443 11.8358 1.79731 11.956 1.87764C12.0762 1.95796 12.1699 2.07212 12.2252 2.20567C12.2805 2.33922 12.295 2.48618 12.2668 2.62796C12.2386 2.76973 12.169 2.89997 12.0668 3.0022L10.3906 4.67837H11.55C11.7439 4.67837 11.9298 4.75539 12.0669 4.89247C12.204 5.02956 12.281 5.21549 12.281 5.40936C12.281 5.60324 12.204 5.78917 12.0669 5.92625C11.9298 6.06334 11.7439 6.14036 11.55 6.14036H8.62601C8.48146 6.14033 8.34016 6.09744 8.21998 6.01711C8.09979 5.93679 8.00612 5.82263 7.95081 5.68908C7.8955 5.55553 7.88102 5.40858 7.90921 5.2668C7.93741 5.12502 8.007 4.99478 8.1092 4.89255L9.78537 3.21638H8.62601Z" fill="black"/>
</svg>
