<svg width="23" height="23" viewBox="0 0 23 23" fill="none" xmlns="http://www.w3.org/2000/svg">
<path fill-rule="evenodd" clip-rule="evenodd" d="M7.71923 5.96492C6.75031 5.96492 5.96484 6.75039 5.96484 7.71931V14.7368C5.96484 15.7058 6.75031 16.4912 7.71923 16.4912H14.7368C15.7057 16.4912 16.4912 15.7058 16.4912 14.7368V7.71931C16.4912 6.75039 15.7057 5.96492 14.7368 5.96492H7.71923ZM9.18122 7.13451H7.71923C7.39626 7.13451 7.13443 7.39633 7.13443 7.71931V14.7368C7.13443 15.0598 7.39626 15.3216 7.71923 15.3216H9.18122V7.13451ZM10.3508 15.3216H14.7368C15.0597 15.3216 15.3216 15.0598 15.3216 14.7368V7.71931C15.3216 7.39633 15.0597 7.13451 14.7368 7.13451H10.3508V15.3216Z" fill="black"/>
</svg>
