<svg width="10" height="10" viewBox="0 0 10 10" fill="none" xmlns="http://www.w3.org/2000/svg">
<path fill-rule="evenodd" clip-rule="evenodd" d="M7.81974 0.232357C8.51252 0.295333 9.06138 0.844208 9.12435 1.53697L9.35079 4.0277C9.38952 4.45362 9.23705 4.87471 8.93464 5.17708L5.17708 8.93469C4.61436 9.49741 3.70196 9.49741 3.13921 8.93469L0.42206 6.2175C-0.140687 5.65479 -0.140687 4.74236 0.42206 4.17965L4.17965 0.422065C4.48201 0.119665 4.90311 -0.0327935 5.32903 0.00592459L7.81974 0.232357ZM8.16767 1.62394C8.14667 1.39302 7.9637 1.21006 7.73277 1.18907L5.24206 0.96264C5.10007 0.949737 4.95972 1.00055 4.8589 1.10135L1.10135 4.85895C0.913765 5.0465 0.913765 5.35065 1.10135 5.5382L3.81853 8.25539C4.00608 8.44295 4.31022 8.44295 4.49778 8.25539L8.25539 4.49783C8.35616 4.39701 8.40697 4.25666 8.39411 4.11467L8.16767 1.62394ZM6.53567 2.82106C6.34807 2.63348 6.04398 2.63348 5.85638 2.82106C5.66877 3.00864 5.66877 3.31277 5.85638 3.50035C6.04398 3.68793 6.34807 3.68793 6.53567 3.50035C6.72323 3.31277 6.72323 3.00864 6.53567 2.82106ZM5.17708 2.14177C5.73984 1.57903 6.65221 1.57903 7.21497 2.14177C7.77769 2.70452 7.77769 3.6169 7.21497 4.17965C6.65221 4.74236 5.73984 4.74236 5.17708 4.17965C4.61436 3.6169 4.61436 2.70452 5.17708 2.14177Z" fill="#C6C6C6"/>
</svg>
