<svg width="12" height="12" viewBox="0 0 12 12" fill="none" xmlns="http://www.w3.org/2000/svg">
<g clip-path="url(#clip0_5_899)">
<path fill-rule="evenodd" clip-rule="evenodd" d="M8.75578 1.16797C9.44855 1.23094 9.99742 1.77982 10.0604 2.47257L10.2868 4.9633C10.3256 5.38922 10.1731 5.81032 9.87068 6.11269L6.11311 9.8703C5.5504 10.433 4.638 10.433 4.07525 9.8703L1.35809 7.15311C0.795349 6.59039 0.795349 5.67797 1.35809 5.11526L5.11569 1.35767C5.41805 1.05527 5.83915 0.902814 6.26507 0.941533L8.75578 1.16797ZM9.10371 2.55955C9.0827 2.32863 8.89973 2.14567 8.66881 2.12468L6.17809 1.89825C6.03611 1.88535 5.89576 1.93616 5.79494 2.03696L2.03738 5.79456C1.8498 5.98211 1.8498 6.28625 2.03738 6.47381L4.75456 9.191C4.94212 9.37856 5.24626 9.37856 5.43381 9.191L9.19143 5.43343C9.2922 5.33262 9.34301 5.19226 9.33014 5.05028L9.10371 2.55955ZM7.47171 3.75667C7.28411 3.56909 6.98001 3.56909 6.79241 3.75667C6.60481 3.94425 6.60481 4.24838 6.79241 4.43596C6.98001 4.62354 7.28411 4.62354 7.47171 4.43596C7.65926 4.24838 7.65926 3.94425 7.47171 3.75667ZM6.11311 3.07738C6.67587 2.51464 7.58825 2.51464 8.15101 3.07738C8.71372 3.64012 8.71372 4.55251 8.15101 5.11526C7.58825 5.67797 6.67587 5.67797 6.11311 5.11526C5.5504 4.55251 5.5504 3.64012 6.11311 3.07738Z" fill="#007AEC"/>
</g>
<defs>
<clipPath id="clip0_5_899">
<rect width="11.2281" height="11.2281" fill="white"/>
</clipPath>
</defs>
</svg>
