<svg width="20" height="20" viewBox="0 0 20 20" fill="none" xmlns="http://www.w3.org/2000/svg">
<path d="M10.0002 1.66678C10.4604 1.66678 10.8335 2.03987 10.8335 2.50011C10.8335 2.96035 10.4604 3.33345 10.0002 3.33345C8.68162 3.33345 7.39287 3.72476 6.29655 4.45731C5.20028 5.18982 4.3459 6.23075 3.84131 7.44884C3.33675 8.66695 3.20408 10.0074 3.46126 11.3006C3.7185 12.5938 4.35346 13.7821 5.28581 14.7145C6.21816 15.6468 7.4065 16.2818 8.69971 16.539C9.99285 16.7962 11.3333 16.6635 12.5514 16.159C13.7695 15.6544 14.8105 14.8 15.543 13.7037C16.2755 12.6074 16.6668 11.3187 16.6668 10.0001C16.6668 9.53988 17.0399 9.16678 17.5002 9.16678C17.9604 9.16678 18.3335 9.53988 18.3335 10.0001C18.3335 11.6483 17.8446 13.2594 16.9289 14.6298C16.0132 16.0002 14.7121 17.0688 13.1895 17.6995C11.6667 18.3302 9.99069 18.4947 8.37419 18.1731C6.75778 17.8516 5.2728 17.0582 4.10742 15.8929C2.94204 14.7275 2.14872 13.2425 1.82715 11.6261C1.5056 10.0096 1.67005 8.33354 2.30078 6.81082C2.9315 5.28817 4.00009 3.98706 5.37044 3.0714C6.74085 2.15572 8.35199 1.66678 10.0002 1.66678ZM8.62158 5.1938C9.06396 5.06695 9.52578 5.32273 9.65267 5.76509C9.77953 6.20749 9.52379 6.66931 9.08138 6.79617L8.87793 6.86128C8.40985 7.02863 7.98406 7.29881 7.63281 7.65311C7.23136 8.05807 6.94052 8.55953 6.78808 9.109C6.63567 9.65859 6.62648 10.2388 6.76204 10.7928C6.89759 11.3465 7.17328 11.8561 7.56201 12.2731C7.95093 12.6901 8.44062 13.0009 8.98372 13.1748C9.52691 13.3486 10.1062 13.3804 10.665 13.2667C11.2238 13.153 11.7443 12.8976 12.1763 12.5253C12.6083 12.1531 12.9374 11.6761 13.1325 11.1402C13.2899 10.7079 13.7678 10.485 14.2002 10.6422C14.6326 10.7996 14.8555 11.2775 14.6982 11.7099C14.4057 12.5137 13.9122 13.2292 13.2643 13.7875C12.6162 14.346 11.8354 14.7295 10.9971 14.9C10.1588 15.0706 9.29063 15.0232 8.47591 14.7625C7.66118 14.5017 6.92718 14.0356 6.34375 13.4099C5.7603 12.7843 5.34673 12.0192 5.14339 11.1883C4.94012 10.3574 4.95305 9.48813 5.18164 8.66385C5.41026 7.83948 5.84728 7.08797 6.44954 6.48042C7.05174 5.87295 7.79937 5.42963 8.62158 5.1938ZM13.5353 2.33979C13.7476 2.1275 14.0582 2.04562 14.3475 2.12576C14.6368 2.20591 14.8606 2.43591 14.9334 2.72716L15.4014 4.59891L17.2731 5.06684C17.5644 5.13966 17.7944 5.36347 17.8745 5.65278C17.9547 5.94211 17.8728 6.25266 17.6605 6.46496L15.0091 9.11632C14.8302 9.29523 14.5794 9.38339 14.328 9.35558L12.0729 9.10493L10.5894 10.5893C10.2639 10.9147 9.73641 10.9147 9.41097 10.5893C9.08553 10.2639 9.08553 9.73636 9.41097 9.41092L10.8945 7.92654L10.6447 5.67313C10.6167 5.42152 10.7049 5.17017 10.884 4.99116L13.5353 2.33979ZM12.3455 5.88553L12.5221 7.47733L14.1139 7.65392L15.4404 6.32661L14.5119 6.09468C14.2134 6.02 13.9803 5.78683 13.9056 5.48839L13.6729 4.55903L12.3455 5.88553Z" fill="white" fill-opacity="0.8"/>
</svg>
