<svg width="15" height="15" viewBox="0 0 15 15" fill="none" xmlns="http://www.w3.org/2000/svg">
<path d="M7.01754 0C6.54977 0 6.09202 0.0458655 5.64875 0.133557C5.26855 0.208772 5.02131 0.577958 5.09653 0.958158C5.17174 1.33836 5.54093 1.5856 5.92113 1.51038C6.27517 1.44034 6.64171 1.40351 7.01754 1.40351C7.39338 1.40351 7.75991 1.44034 8.11396 1.51038C8.49416 1.5856 8.86334 1.33836 8.93856 0.958158C9.01377 0.577958 8.76653 0.208772 8.38634 0.133557C7.94307 0.0458655 7.48531 0 7.01754 0Z" fill="black"/>
<path d="M10.9171 1.18242C10.595 0.966804 10.1592 1.05309 9.94356 1.37515C9.72795 1.69721 9.81424 2.13308 10.1363 2.34869C10.7488 2.75876 11.2763 3.28627 11.6864 3.89879C11.902 4.22085 12.3379 4.30714 12.6599 4.09153C12.982 3.87592 13.0683 3.44005 12.8527 3.11799C12.3405 2.35302 11.6821 1.69455 10.9171 1.18242Z" fill="black"/>
<path d="M3.89879 2.34869C4.22085 2.13308 4.30714 1.69721 4.09153 1.37515C3.87592 1.0531 3.44005 0.966804 3.11799 1.18242C2.35302 1.69455 1.69455 2.35302 1.18242 3.11799C0.966804 3.44005 1.05309 3.87592 1.37515 4.09153C1.69721 4.30714 2.13308 4.22085 2.34869 3.89879C2.75876 3.28627 3.28627 2.75876 3.89879 2.34869Z" fill="black"/>
<path d="M1.51038 5.92113C1.5856 5.54093 1.33836 5.17174 0.958158 5.09653C0.577958 5.02131 0.208772 5.26855 0.133557 5.64875C0.0458655 6.09202 0 6.54977 0 7.01754C0 7.48531 0.0458655 7.94307 0.133557 8.38634C0.208772 8.76653 0.577958 9.01377 0.958158 8.93856C1.33836 8.86334 1.5856 8.49416 1.51038 8.11396C1.44034 7.75991 1.40351 7.39338 1.40351 7.01754C1.40351 6.64171 1.44034 6.27517 1.51038 5.92113Z" fill="black"/>
<path d="M13.9015 5.64875C13.8263 5.26855 13.4571 5.02131 13.0769 5.09653C12.6967 5.17174 12.4495 5.54093 12.5247 5.92113C12.5947 6.27517 12.6316 6.64171 12.6316 7.01754C12.6316 7.39338 12.5947 7.75991 12.5247 8.11396C12.4495 8.49416 12.6967 8.86334 13.0769 8.93856C13.4571 9.01377 13.8263 8.76653 13.9015 8.38634C13.9892 7.94307 14.0351 7.48531 14.0351 7.01754C14.0351 6.54977 13.9892 6.09202 13.9015 5.64875Z" fill="black"/>
<path d="M12.8527 10.9171C13.0683 10.595 12.982 10.1592 12.6599 9.94356C12.3379 9.72795 11.902 9.81424 11.6864 10.1363C11.6288 10.2223 11.5689 10.3067 11.5067 10.3893C11.421 10.2864 11.3126 10.2021 11.1813 10.1365C10.5367 9.76218 9.85575 9.48668 9.1384 9.30994C8.42105 9.1332 7.68811 9.04484 6.93957 9.04484C6.19103 9.04484 5.45809 9.1332 4.74074 9.30994C4.02339 9.48668 3.34243 9.76218 2.69786 10.1365C2.61205 10.1841 2.53498 10.2405 2.46666 10.3057C2.42633 10.25 2.387 10.1935 2.34869 10.1363C2.13308 9.81424 1.69721 9.72795 1.37515 9.94356C1.0531 10.1592 0.966804 10.595 1.18242 10.9171C1.69455 11.6821 2.35302 12.3405 3.11799 12.8527C3.23794 12.933 3.37368 12.9714 3.50794 12.9714C3.80914 13.1758 4.1265 13.3537 4.46004 13.5049C4.82092 13.6685 5.19183 13.7942 5.57275 13.8821C5.59742 13.8899 5.62278 13.8964 5.64875 13.9015C5.69716 13.9111 5.74573 13.9202 5.79448 13.9288C6.16679 13.9996 6.54849 14.0351 6.93957 14.0351C6.95225 14.0351 6.96491 14.0351 6.97757 14.035C6.99089 14.0351 7.00421 14.0351 7.01754 14.0351C7.48531 14.0351 7.94307 13.9892 8.38634 13.9015C8.48223 13.8826 8.56968 13.8449 8.64562 13.793C8.90837 13.7156 9.1662 13.6195 9.4191 13.5049C9.75988 13.3504 10.0838 13.1681 10.3908 12.958C10.5669 12.9928 10.7562 12.9604 10.9171 12.8527C11.6821 12.3405 12.3405 11.6821 12.8527 10.9171Z" fill="black"/>
<path d="M8.70175 7.06433C8.21312 7.55296 7.62573 7.79727 6.93957 7.79727C6.25341 7.79727 5.66602 7.55296 5.17739 7.06433C4.68876 6.5757 4.44444 5.9883 4.44444 5.30214C4.44444 4.61598 4.68876 4.02859 5.17739 3.53996C5.66602 3.05133 6.25341 2.80702 6.93957 2.80702C7.62573 2.80702 8.21312 3.05133 8.70175 3.53996C9.19038 4.02859 9.4347 4.61598 9.4347 5.30214C9.4347 5.9883 9.19038 6.5757 8.70175 7.06433Z" fill="black"/>
</svg>
