<svg width="15" height="15" viewBox="0 0 15 15" fill="none" xmlns="http://www.w3.org/2000/svg">
<path d="M7.01787 1.16959C3.7898 1.16959 1.16992 3.78947 1.16992 7.01754C1.16992 10.2456 3.7898 12.8655 7.01787 12.8655C10.2459 12.8655 12.8658 10.2456 12.8658 7.01754C12.8658 3.78947 10.2459 1.16959 7.01787 1.16959ZM7.01787 3.50877C8.14653 3.50877 9.06466 4.4269 9.06466 5.55555C9.06466 6.68421 8.14653 7.60233 7.01787 7.60233C5.88922 7.60233 4.97109 6.68421 4.97109 5.55555C4.97109 4.4269 5.88922 3.50877 7.01787 3.50877ZM7.01787 11.6959C5.83074 11.6959 4.42723 11.2164 3.42723 10.0117C4.41554 9.23976 5.66115 8.77192 7.01787 8.77192C8.3746 8.77192 9.62021 9.23976 10.6085 10.0117C9.60852 11.2164 8.20501 11.6959 7.01787 11.6959Z" fill="#AFBFC0"/>
</svg>
