<svg width="15" height="15" viewBox="0 0 15 15" fill="none" xmlns="http://www.w3.org/2000/svg">
<path fill-rule="evenodd" clip-rule="evenodd" d="M1.16943 4.09359C1.16943 2.47873 2.47854 1.16962 4.09341 1.16962H9.94136C11.5562 1.16962 12.8653 2.47873 12.8653 4.09359V9.94155C12.8653 11.5564 11.5562 12.8655 9.94136 12.8655H4.09341C2.47854 12.8655 1.16943 11.5564 1.16943 9.94155V4.09359ZM4.09341 2.33921C3.12449 2.33921 2.33902 3.12468 2.33902 4.09359V9.94155C2.33902 10.9105 3.12449 11.6959 4.09341 11.6959H9.94136C10.9103 11.6959 11.6957 10.9105 11.6957 9.94155V4.09359C11.6957 3.12468 10.9103 2.33921 9.94136 2.33921H4.09341ZM4.67821 5.51292V8.52219C4.67821 9.17429 5.36445 9.59845 5.94768 9.30681L8.95698 7.80213C9.60353 7.47891 9.60353 6.55622 8.95698 6.23301L5.94768 4.72834C5.36445 4.43672 4.67821 4.86083 4.67821 5.51292Z" fill="black"/>
</svg>
