<svg width="17" height="17" viewBox="0 0 17 17" fill="none" xmlns="http://www.w3.org/2000/svg">
<rect width="16.8421" height="16.8421" rx="8.42105" fill="#5FD669"/>
<g clip-path="url(#clip0_5_612)">
<path d="M3.94461 8.40005C3.94439 9.19194 4.1513 9.96516 4.54475 10.6467L3.90698 12.9753L6.28999 12.3504C6.9491 12.7092 7.68759 12.8973 8.43803 12.8973H8.44C10.9174 12.8973 12.934 10.8814 12.9351 8.40359C12.9355 7.20292 12.4684 6.07388 11.6196 5.22446C10.771 4.37511 9.64236 3.9071 8.43982 3.90656C5.96216 3.90656 3.94567 5.92235 3.94465 8.40005" fill="url(#paint0_linear_5_612)"/>
<path d="M3.78396 8.39857C3.78371 9.21895 3.99803 10.0198 4.4055 10.7258L3.74487 13.1378L6.21333 12.4906C6.89347 12.8614 7.65924 13.0569 8.43845 13.0572H8.44046C11.0067 13.0572 13.0958 10.9688 13.0969 8.40229C13.0973 7.15848 12.6134 5.98885 11.7343 5.109C10.8551 4.22925 9.68607 3.74441 8.44046 3.7439C5.87377 3.7439 3.78498 5.83203 3.78396 8.39857ZM5.25402 10.6042L5.16185 10.4579C4.7744 9.84181 4.5699 9.12989 4.57019 8.39886C4.57099 6.26562 6.30711 4.53005 8.44192 4.53005C9.47576 4.53049 10.4473 4.9335 11.1781 5.66471C11.9088 6.396 12.311 7.36809 12.3107 8.402C12.3097 10.5352 10.5736 12.271 8.44046 12.271H8.43893C7.74436 12.2707 7.06316 12.0841 6.46908 11.7316L6.32771 11.6478L4.86288 12.0319L5.25402 10.6042Z" fill="url(#paint1_linear_5_612)"/>
<path d="M7.2772 6.45264C7.19003 6.25891 7.0983 6.25501 7.01541 6.25161C6.94754 6.24869 6.86995 6.24891 6.79243 6.24891C6.71483 6.24891 6.58876 6.27809 6.4822 6.39445C6.37553 6.51091 6.07495 6.79234 6.07495 7.36475C6.07495 7.93716 6.49188 8.49039 6.55 8.56809C6.6082 8.64565 7.3549 9.85791 8.53749 10.3243C9.52033 10.7118 9.72034 10.6347 9.93364 10.6153C10.147 10.5959 10.622 10.3339 10.719 10.0623C10.8159 9.79061 10.8159 9.55776 10.7869 9.5091C10.7578 9.46063 10.6802 9.43151 10.5638 9.37335C10.4475 9.3152 9.87545 9.03369 9.76881 8.99485C9.66214 8.95606 9.58459 8.9367 9.50699 9.05319C9.4294 9.16951 9.2066 9.43151 9.13868 9.5091C9.07085 9.58688 9.00293 9.59656 8.88662 9.53837C8.77019 9.47999 8.39549 9.35728 7.95094 8.96095C7.60506 8.65255 7.37156 8.27172 7.30368 8.15522C7.23581 8.0389 7.29641 7.97585 7.35475 7.91787C7.40703 7.86574 7.47114 7.78201 7.52937 7.7141C7.58738 7.64615 7.60675 7.59768 7.64554 7.52008C7.68437 7.44242 7.66494 7.37447 7.6359 7.31628C7.60675 7.25808 7.38065 6.68268 7.2772 6.45264Z" fill="white"/>
</g>
<defs>
<linearGradient id="paint0_linear_5_612" x1="455.311" y1="910.778" x2="455.311" y2="3.90656" gradientUnits="userSpaceOnUse">
<stop stop-color="#1FAF38"/>
<stop offset="1" stop-color="#60D669"/>
</linearGradient>
<linearGradient id="paint1_linear_5_612" x1="471.345" y1="943.135" x2="471.345" y2="3.7439" gradientUnits="userSpaceOnUse">
<stop stop-color="#F9F9F9"/>
<stop offset="1" stop-color="white"/>
</linearGradient>
<clipPath id="clip0_5_612">
<rect width="9.35439" height="9.35439" fill="white" transform="translate(3.7439 3.7439)"/>
</clipPath>
</defs>
</svg>
