<svg width="15" height="15" viewBox="0 0 15 15" fill="none" xmlns="http://www.w3.org/2000/svg">
<path fill-rule="evenodd" clip-rule="evenodd" d="M5.26317 2.92397C5.26317 2.27802 5.78681 1.75438 6.43276 1.75438H7.60235C8.24829 1.75438 8.77194 2.27802 8.77194 2.92397V4.09356C8.77194 4.61915 8.42525 5.06377 7.94807 5.21121C7.76293 5.26842 7.60235 5.42024 7.60235 5.61403V6.08186C7.60235 6.27565 7.75944 6.43274 7.95322 6.43274H9.94153C10.5875 6.43274 11.1111 6.95639 11.1111 7.60233V8.77192C11.7571 8.77192 12.2807 9.29557 12.2807 9.94151V11.1111C12.2807 11.7571 11.7571 12.2807 11.1111 12.2807H9.94153C9.29558 12.2807 8.77194 11.7571 8.77194 11.1111V9.94151C8.77194 9.29557 9.29558 8.77192 9.94153 8.77192V7.95321C9.94153 7.75943 9.78444 7.60233 9.59065 7.60233H4.44445C4.25067 7.60233 4.09358 7.75943 4.09358 7.95321V8.77192C4.73952 8.77192 5.26317 9.29557 5.26317 9.94151V11.1111C5.26317 11.7571 4.73952 12.2807 4.09358 12.2807H2.92399C2.27804 12.2807 1.75439 11.7571 1.75439 11.1111V9.94151C1.75439 9.29557 2.27804 8.77192 2.92399 8.77192V7.60233C2.92399 6.95639 3.44763 6.43274 4.09358 6.43274H6.08188C6.27566 6.43274 6.43276 6.27565 6.43276 6.08186V5.61403C6.43276 5.42024 6.27218 5.26842 6.08703 5.21121C5.60986 5.06377 5.26317 4.61915 5.26317 4.09356V2.92397ZM7.60235 3.27485C7.60235 3.08106 7.44525 2.92397 7.25147 2.92397H6.78363C6.58985 2.92397 6.43276 3.08106 6.43276 3.27485V3.74268C6.43276 3.93647 6.58985 4.09356 6.78363 4.09356H7.25147C7.44525 4.09356 7.60235 3.93647 7.60235 3.74268V3.27485ZM3.27486 9.94151C3.08108 9.94151 2.92399 10.0986 2.92399 10.2924V10.7602C2.92399 10.954 3.08108 11.1111 3.27486 11.1111H3.7427C3.93648 11.1111 4.09358 10.954 4.09358 10.7602V10.2924C4.09358 10.0986 3.93648 9.94151 3.7427 9.94151H3.27486ZM10.2924 9.94151C10.0986 9.94151 9.94153 10.0986 9.94153 10.2924V10.7602C9.94153 10.954 10.0986 11.1111 10.2924 11.1111H10.7602C10.954 11.1111 11.1111 10.954 11.1111 10.7602V10.2924C11.1111 10.0986 10.954 9.94151 10.7602 9.94151H10.2924Z" fill="#90909B"/>
</svg>
